<svg width="26" height="25" viewBox="0 0 26 25" fill="none" xmlns="http://www.w3.org/2000/svg">
<path d="M0 8.9135C0 7.3743 1.85257 6.59682 2.94864 7.67601L11.7847 16.3759C12.4592 17.04 13.5408 17.04 14.2153 16.3759L23.0514 7.67601C24.1474 6.59681 26 7.37431 26 8.9135V22.9961C26 23.9547 25.224 24.7317 24.2667 24.7317H1.73333C0.77604 24.7317 0 23.9547 0 22.9961V8.9135Z" fill="black"/>
<path d="M12.2743 15.0504C12.4962 15.1406 12.734 15.1867 12.974 15.1861C13.2141 15.1867 13.4519 15.1406 13.6737 15.0504C13.8956 14.9602 14.0972 14.8277 14.2668 14.6606L20.6395 8.38443C21.1416 7.88872 21.5306 7.29344 21.7806 6.63824C22.0306 5.98305 22.1358 5.28297 22.0893 4.58463C22.0428 3.88628 21.8456 3.2057 21.5108 2.58821C21.1761 1.97072 20.7115 1.43048 20.1479 1.00348C19.1579 0.282764 17.936 -0.0605256 16.7085 0.0371934C15.481 0.134912 14.3311 0.667019 13.4717 1.53496L12.974 2.02463L12.3671 1.42747C11.9064 0.969417 11.3569 0.607065 10.7511 0.361901C10.1454 0.116736 9.49581 -0.00624689 8.84087 0.000244183C8.19744 -0.00605707 7.55907 0.112601 6.96233 0.349423C6.36558 0.586245 5.82219 0.936576 5.36326 1.38035C4.90434 1.82413 4.53891 2.35262 4.2879 2.93557C4.03689 3.51852 3.90524 4.14447 3.90048 4.77756C3.89102 5.46839 4.02138 6.15417 4.28397 6.79494C4.54655 7.43571 4.9361 8.01866 5.42994 8.50984L11.6813 14.6606C11.8509 14.8277 12.0525 14.9602 12.2743 15.0504Z" fill="black"/>
</svg>
